PathFileType	4	(X/Y/Z)	s05c0403.trc
DataRate	CameraRate	NumFrames	NumMarkers	Units	OrigDataRate	OrigDataStartFrame	OrigNumFrames
200	200	6	49	mm	200	1250	2000
Frame#	Time	racr			lacr			c7			jug			rlel			rdr			llel			ldr			s2			lic			ric			lasi			rasi			rpsi			lpsi			rgt			lgt			rth1			rth2			rth3			rth4			rlfc			rsh1			rsh2			rsh3			rsh4			rlmal			rmmal			rcal			rtoe			rmt5			lth1			lth2			lth4			lth3			llfc			lmfc			lsh1			lsh2			lsh3			lsh4			llmal			lmmal			lcal			ltoe			lmt5			SBIKE			LBIKE			RBIKE			
		X1	Y1	Z1	X2	Y2	Z2	X3	Y3	Z3	X4	Y4	Z4	X5	Y5	Z5	X6	Y6	Z6	X7	Y7	Z7	X8	Y8	Z8	X9	Y9	Z9	X10	Y10	Z10	X11	Y11	Z11	X12	Y12	Z12	X13	Y13	Z13	X14	Y14	Z14	X15	Y15	Z15	X16	Y16	Z16	X17	Y17	Z17	X18	Y18	Z18	X19	Y19	Z19	X20	Y20	Z20	X21	Y21	Z21	X22	Y22	Z22	X23	Y23	Z23	X24	Y24	Z24	X25	Y25	Z25	X26	Y26	Z26	X27	Y27	Z27	X28	Y28	Z28	X29	Y29	Z29	X30	Y30	Z30	X31	Y31	Z31	X32	Y32	Z32	X33	Y33	Z33	X34	Y34	Z34	X35	Y35	Z35	X36	Y36	Z36	X37	Y37	Z37	X38	Y38	Z38	X39	Y39	Z39	X40	Y40	Z40	X41	Y41	Z41	X42	Y42	Z42	X43	Y43	Z43	X44	Y44	Z44	X45	Y45	Z45	X46	Y46	Z46	X47	Y47	Z47	X48	Y48	Z48	X49	Y49	Z49	
1250	6.2500	821.532382	1269.403740	-140.508961	798.552159	1269.495042	-454.033946	804.793287	1358.075066	-304.125705	752.630535	1196.062833	-292.320042	615.705466	1145.972405	38.035822	684.746910	953.573319	-52.465686	559.859545	1156.423960	-624.386381	680.815619	960.994143	-534.249263	212.555135	1240.056140	-242.649723	346.001457	1213.300328	-399.354639	373.938785	1230.471383	-117.564907	379.693923	1151.778638	-362.553505	390.408489	1159.756612	-147.200368	261.990569	1278.889135	-207.773582	257.532391	1277.246196	-294.707800	306.582407	1109.143876	-81.829077	249.127587	1128.493982	-414.648988	389.196623	1019.605006	-76.572801	461.150891	968.193863	-86.558057	495.834039	887.312469	-94.444957	486.222677	990.425773	-101.517105	562.828466	765.051079	-131.416666	460.509760	735.640376	-97.699511	390.819283	681.075121	-108.737665	307.089957	664.749059	-107.958618	404.470033	656.301374	-134.976380	187.938631	605.604958	-108.323985	216.371539	613.878040	-189.607500	129.983340	657.562804	-150.400173	209.265206	372.973865	-167.988382	157.952246	455.934536	-95.822498	286.824690	984.952478	-441.837999	331.937632	912.493109	-439.972252	367.124923	921.171701	-430.167947	333.118630	821.765927	-438.217948	361.476821	683.301076	-413.515820	342.893993	670.191805	-309.675351	293.667750	574.981307	-444.610330	286.016674	488.294577	-436.426762	234.811129	415.492227	-437.254136	315.489025	479.280992	-412.987175	199.803045	300.891541	-434.273571	231.864099	325.631858	-366.762487	134.459015	282.803236	-389.910649	402.123429	160.607097	-405.828341	289.577889	173.700202	-465.262323	-172.325355	898.732242	-277.720723	-53.214156	79.054195	-474.746070	-53.250299	79.324032	-77.142487	
1251	6.2550	821.184738	1270.318390	-137.995180	798.869105	1271.434965	-451.529590	804.457072	1359.109092	-301.398138	752.479427	1197.333979	-290.026448	615.025507	1145.368199	40.457249	684.976321	953.798395	-52.165213	561.458653	1157.463376	-623.275838	681.601120	960.789052	-534.323453	212.007146	1238.671551	-245.697241	347.743798	1210.725437	-400.568568	371.843760	1231.977972	-118.627940	380.993661	1149.717741	-362.542455	389.074790	1160.901742	-147.367042	260.725272	1278.123314	-211.075103	257.383799	1275.412566	-297.897146	305.735000	1110.580247	-82.533540	250.099948	1125.676613	-415.476654	390.340424	1023.138254	-77.071366	463.798668	973.391283	-86.194738	500.580703	893.507264	-94.106028	488.319663	996.358530	-100.867274	570.307098	772.848257	-130.602665	468.377266	742.863266	-97.037303	399.112050	688.181536	-108.120930	315.355301	671.505109	-107.655707	412.716291	663.320098	-134.280333	196.652538	611.415341	-108.536975	224.593489	619.777518	-189.831465	138.485876	662.923111	-150.501292	218.414415	378.485144	-168.837690	167.098629	461.249678	-96.501197	284.878209	982.100171	-442.448365	327.989475	908.472388	-440.306224	363.361374	916.208759	-430.186736	326.736330	817.790344	-438.183594	351.898171	679.366288	-413.406459	332.768529	665.952843	-309.768753	284.353912	571.103715	-445.002693	276.876299	484.502041	-436.806575	225.897266	411.591934	-437.585104	306.462388	475.586485	-413.624803	192.011258	296.761018	-434.444154	223.851184	321.302426	-367.325152	126.786306	279.525766	-390.152296	392.988608	153.916957	-405.708931	280.559559	168.309258	-465.111139	-172.265517	898.696600	-277.725427	-53.225109	79.059434	-474.759737	-53.241560	79.314779	-77.146658	
1252	6.2600	821.017385	1270.888379	-135.563860	799.153803	1273.091613	-448.943175	804.048521	1359.991254	-298.797974	752.210995	1198.404410	-287.774395	614.237112	1144.830397	43.044276	685.121422	954.043407	-51.856671	562.992999	1158.473321	-622.149966	682.274711	960.524689	-534.485942	211.475436	1237.459376	-248.945525	349.360413	1208.259254	-401.679869	369.633737	1233.457357	-119.757829	382.227787	1147.956065	-362.724275	387.751810	1161.928357	-147.434977	259.083827	1277.743755	-214.218115	257.218243	1273.975078	-301.416055	304.778732	1112.098850	-83.134173	251.139139	1123.097745	-416.277007	391.291659	1026.682656	-77.376184	466.323274	978.805112	-85.574689	504.922702	899.826478	-93.301620	490.039667	1002.728317	-99.738245	577.677349	780.915853	-129.108461	475.748208	750.356799	-96.729994	407.069738	695.109938	-107.614219	323.431902	678.030950	-107.332095	420.950289	670.181545	-133.505448	205.262246	616.600879	-108.683907	233.571513	625.319821	-189.538493	146.782578	667.693077	-150.539658	228.669186	383.905983	-169.115423	177.127682	466.226246	-96.412999	283.046161	979.828013	-443.170057	324.131478	905.033681	-440.890119	359.594326	911.869841	-430.483273	320.393201	814.393483	-438.471999	342.540126	676.129315	-413.638364	322.933391	662.289102	-310.186758	275.112596	567.913288	-445.616684	267.860682	481.247353	-437.454061	217.022188	408.208775	-438.112557	297.529813	472.447813	-414.397542	183.941772	293.141118	-434.704745	215.741337	317.544024	-367.903577	118.879767	276.884230	-390.493178	383.537077	147.826977	-405.534593	271.321129	163.421143	-465.066600	-172.343495	898.664107	-277.771083	-53.214381	79.038885	-474.737418	-53.247535	79.308391	-77.148064	
1253	6.2650	821.027519	1271.157338	-133.133022	799.386246	1274.534880	-446.327695	803.619428	1360.768419	-296.033392	751.946911	1199.461083	-285.509745	613.502647	1144.478265	45.650936	685.193524	954.312540	-51.600868	564.413919	1159.541570	-620.969291	682.763344	960.302296	-534.728178	210.965620	1236.244099	-252.012501	350.957512	1206.061266	-402.868607	367.359874	1234.887436	-120.838092	383.346030	1146.395605	-362.746553	386.426446	1163.163310	-147.349830	257.725876	1277.301291	-217.520203	257.144455	1272.299977	-304.228396	303.753348	1113.763640	-83.797616	252.224174	1120.773505	-417.117248	392.226844	1030.310779	-77.214462	468.447240	984.346110	-85.093510	508.971493	906.286665	-92.201290	491.483614	1008.619751	-99.356703	584.529621	788.821546	-128.192563	482.998404	757.788805	-96.213284	414.797357	701.973731	-107.071226	331.217491	684.138506	-106.892366	428.995251	676.898024	-132.711779	213.736680	621.208593	-108.767830	242.145676	630.306309	-189.379508	154.813938	671.787372	-150.549781	240.542781	389.934627	-168.248633	186.484320	470.678722	-97.032811	281.202477	978.156263	-443.915753	320.388669	902.272692	-441.704469	355.945606	908.195850	-430.969174	313.995495	811.706204	-439.336834	333.422023	673.477211	-414.165222	313.165632	659.939377	-310.468976	266.009016	565.420589	-446.705788	258.933886	478.538031	-438.261082	208.277263	405.415425	-438.803556	288.723334	469.799658	-415.281794	175.813843	290.284637	-435.326691	207.587760	314.367391	-368.485937	110.922718	274.980790	-391.031700	373.865036	142.423861	-405.353683	261.894584	159.119478	-465.044575	-172.377376	898.655629	-277.829128	-53.228228	79.044036	-474.749497	-53.253181	79.307301	-77.161991	
1254	6.2700	820.833840	1271.266598	-130.714305	799.569935	1275.684399	-443.628187	803.179962	1361.370883	-293.260516	751.620039	1200.293536	-283.282163	612.759998	1144.294411	48.369966	685.266715	954.606722	-51.386989	565.834171	1160.664789	-619.824456	683.131807	960.025163	-535.018456	210.358803	1235.175345	-254.744848	352.646871	1204.075595	-403.947201	364.978342	1236.312804	-122.041166	384.399510	1145.168106	-363.143194	385.049336	1164.420714	-147.450744	256.060088	1277.304339	-220.981969	257.531619	1271.087330	-307.504568	302.671552	1115.564995	-84.444032	253.284324	1118.762016	-417.839911	392.973847	1033.802773	-77.103189	470.145855	989.646291	-84.848876	512.672674	912.592013	-91.670776	492.187373	1014.659370	-98.897880	590.359048	797.444697	-126.609496	490.146277	765.243351	-95.597633	422.259946	708.599062	-106.596242	338.922874	689.948178	-106.601530	436.852224	683.509301	-131.862725	222.083728	625.292206	-108.929148	250.744879	634.676547	-189.135835	162.751357	675.306953	-150.584793	250.490537	393.579454	-169.207295	196.490139	474.567493	-97.207667	279.517525	977.019348	-444.633438	316.885288	900.174521	-442.564604	352.430175	905.212562	-431.521013	308.287770	809.775635	-440.650406	324.664467	671.268309	-414.880189	304.253211	657.763635	-311.031377	257.128173	563.296976	-447.608984	250.242674	476.494105	-439.271112	199.663246	403.221004	-439.673280	280.073900	467.624739	-416.353692	167.633113	287.891019	-435.955807	199.443642	311.783142	-369.060402	102.807919	273.755354	-391.719337	363.983918	137.531274	-405.105802	252.252072	155.451702	-465.016997	-172.317920	898.660089	-277.741006	-53.240827	79.048918	-474.737330	-53.269671	79.313980	-77.146461	
1255	6.2750	820.853500	1270.995494	-128.285359	799.756873	1276.656001	-440.914063	802.778731	1361.977588	-290.392603	751.232292	1201.029900	-280.880691	611.781077	1144.242265	50.688815	685.333264	954.936852	-51.202410	567.204869	1161.748531	-618.722545	683.288761	959.792267	-535.285480	209.687686	1234.511992	-257.798579	354.245969	1202.332909	-404.757261	362.487855	1237.757776	-123.267635	385.321974	1144.023776	-363.497616	383.571878	1165.717165	-147.465083	254.763661	1277.135427	-224.226151	257.572355	1270.031918	-310.302320	301.527332	1117.438555	-85.134351	254.355056	1117.049305	-418.537383	393.461937	1037.313693	-76.874472	471.309097	994.902991	-84.620887	515.916483	918.696981	-91.437722	492.913608	1020.275440	-98.957865	596.191804	805.279866	-125.276617	496.601497	772.438696	-95.170862	429.519047	715.014734	-106.106874	346.366259	695.284151	-106.291513	444.434767	689.721318	-130.928219	230.364955	628.787907	-109.028782	258.968126	638.574842	-188.932750	169.988821	677.975137	-150.840635	261.806745	397.616801	-169.483296	206.683344	477.798710	-97.372169	277.871294	976.261635	-445.337260	313.598763	898.638338	-443.572916	349.177477	902.862295	-432.251170	302.992982	808.462975	-442.340230	316.376899	669.539010	-415.688673	296.000283	656.041942	-311.685724	248.687388	561.681928	-448.564320	241.760416	474.872812	-440.201118	191.223328	401.663742	-440.727226	271.647481	466.085849	-417.429548	159.520413	286.319339	-436.954736	191.362204	309.802016	-369.615058	94.696759	273.260388	-392.504357	353.857572	133.225307	-404.941038	242.440302	152.341881	-465.079432	-172.428425	898.696088	-277.683451	-53.238431	79.029447	-474.731366	-53.260939	79.293534	-77.156216	
